<?xml version="1.0" encoding="UTF-8" standalone="no"?>
<svg
   xmlns:osb="http://www.openswatchbook.org/uri/2009/osb"
   xmlns:dc="http://purl.org/dc/elements/1.1/"
   xmlns:cc="http://creativecommons.org/ns#"
   xmlns:rdf="http://www.w3.org/1999/02/22-rdf-syntax-ns#"
   xmlns:svg="http://www.w3.org/2000/svg"
   xmlns="http://www.w3.org/2000/svg"
   xmlns:xlink="http://www.w3.org/1999/xlink"
   xmlns:sodipodi="http://sodipodi.sourceforge.net/DTD/sodipodi-0.dtd"
   xmlns:inkscape="http://www.inkscape.org/namespaces/inkscape"
   width="210mm"
   height="297mm"
   viewBox="0 0 210 297"
   version="1.1"
   id="svg48"
   inkscape:version="1.0.2-2 (e86c870879, 2021-01-15)"
   sodipodi:docname="fileextensons_inkscape.svg">
  <defs
     id="defs42">
    <linearGradient
       id="linearGradient938"
       osb:paint="solid">
      <stop
         style="stop-color:#000000;stop-opacity:1;"
         offset="0"
         id="stop936" />
    </linearGradient>
    <linearGradient
       id="linearGradient877"
       osb:paint="solid">
      <stop
         style="stop-color:#0000ff;stop-opacity:0.97254902;"
         offset="0"
         id="stop875" />
    </linearGradient>
    <linearGradient
       inkscape:collect="always"
       xlink:href="#linearGradient938"
       id="linearGradient940"
       x1="45.435822"
       y1="44.767647"
       x2="80.982666"
       y2="44.767647"
       gradientUnits="userSpaceOnUse"
       gradientTransform="matrix(3.7795276,0,0,3.7795276,-167.8648,-78.883926)" />
  </defs>
  <sodipodi:namedview
     id="base"
     pagecolor="#ffffff"
     bordercolor="#666666"
     borderopacity="1.0"
     inkscape:pageopacity="0.0"
     inkscape:pageshadow="2"
     inkscape:zoom="5.6568543"
     inkscape:cx="95.180705"
     inkscape:cy="131.4982"
     inkscape:document-units="mm"
     inkscape:current-layer="layer1"
     inkscape:document-rotation="0"
     showgrid="false"
     inkscape:snap-page="false"
     inkscape:snap-grids="true"
     inkscape:window-width="1920"
     inkscape:window-height="1002"
     inkscape:window-x="-8"
     inkscape:window-y="-8"
     inkscape:window-maximized="1" />
  <metadata
     id="metadata45">
    <rdf:RDF>
      <cc:Work
         rdf:about="">
        <dc:format>image/svg+xml</dc:format>
        <dc:type
           rdf:resource="http://purl.org/dc/dcmitype/StillImage" />
        <dc:title></dc:title>
      </cc:Work>
    </rdf:RDF>
  </metadata>
  <g
     inkscape:label="Layer 1"
     inkscape:groupmode="layer"
     id="layer1">
    <g
       id="g917"
       transform="matrix(0.26458333,0,0,0.26458333,-4.8957481,-5.9222398)">
      <g
         transform="translate(0,-952.36218)"
         id="g899" />
    </g>
    <rect
       style="opacity:1;fill:#0000ff;fill-opacity:0;stroke-width:0.264583;"
       id="rect919"
       width="1.7776825"
       height="1.5627085"
       x="9.3946972"
       y="12.395425" />
    <rect
       style="opacity:1;fill:#0000ff;fill-opacity:0;stroke-width:0.264583;"
       id="rect921"
       width="6.5673361"
       height="5.1026788"
       x="-5.1499252"
       y="22.017113" />
    <rect
       style="opacity:1;fill:#0000ff;fill-opacity:0;stroke-width:0.264583;"
       id="rect923"
       width="12.189733"
       height="1.984375"
       x="1.2756697"
       y="24.851934" />
    <rect
       style="opacity:1;fill:#0000ff;fill-opacity:0;stroke-width:0.264583;"
       id="rect930"
       width="0.16536458"
       height="0.46302083"
       x="12.784672"
       y="13.495112" />
    <path
       id="rect934"
       style="opacity:1;fill:#0000ff;fill-opacity:0;stroke:url(#linearGradient940);stroke-width:7.55906;stroke-linejoin:round;stroke-miterlimit:4;stroke-dasharray:none;"
       d="M 92.224609 3.9492188 L 14.720703 3.9492188 C 8.7047395 3.9492187 3.8613281 8.7926301 3.8613281 14.808594 L 3.8613281 165.82617 C 3.8613281 171.84214 8.7047395 176.68555 14.720703 176.68555 L 127.35156 176.68555 C 133.36753 176.68555 138.21094 171.84214 138.21094 165.82617 L 138.21094 48.671875 L 92.224609 3.9492188 z "
       transform="scale(0.26458333)" />
    <rect
       style="opacity:1;fill:#0000ff;fill-opacity:0;stroke-width:1.065;stroke-linejoin:round;stroke-miterlimit:4;stroke-dasharray:none;"
       id="rect942"
       width="0.73499024"
       height="7.6839986"
       x="80.247673"
       y="21.916101" />
    <rect
       style="opacity:1;fill:#0000ff;fill-opacity:0;stroke-width:1.065;stroke-linejoin:round;stroke-miterlimit:4;stroke-dasharray:none;"
       id="rect944"
       width="12.895755"
       height="9.2207985"
       x="65.815117"
       y="22.317005"
       ry="2.873137" />
    <circle
       id="path974"
       style="fill:#000000;stroke:none;stroke-width:0.264583;"
       cx="80.915848"
       cy="32.339615"
       r="0.39687499" />
    <path
       style="fill:none;stroke:#000000;stroke-width:0.264583px;stroke-linecap:butt;stroke-linejoin:miter;stroke-opacity:1;"
       d="m 65.815117,22.317005 c 0,0.02227 2e-6,0.04454 0,0 z"
       id="path976" />
    <rect
       style="opacity:1;fill:#0000ff;fill-opacity:0;stroke-width:2;stroke-linejoin:round;stroke-miterlimit:4;stroke-dasharray:none;"
       id="rect980"
       width="1.7179202"
       height="1.8952361"
       x="1.0215925"
       y="1.0447286"
       ry="0.85896009" />
    <path
       style="opacity:1;fill:#000000;fill-opacity:0;stroke-width:2;stroke-linejoin:round;stroke-miterlimit:4;stroke-dasharray:none;"
       id="path982"
       d="m 19.435106,-1.3553355 c 0.253217,0.77731287 0.487504,1.56114197 0.719471,2.34515957 0.07435,0.23918143 0.153722,0.47662963 0.241084,0.71136013 0.03208,0.086206 0.05475,0.1770905 0.09988,0.2572375 0.01555,0.027606 0.03945,0.049588 0.05918,0.074382 0.02976,0.011242 0.05765,0.03043 0.08929,0.033728 0.120522,0.012559 0.259905,-0.073211 0.35692,-0.1295503 0.654318,-0.3799831 0.502017,-0.2836532 0.840259,-0.5031559 -0.156377,0.099682 -0.343586,0.1625591 -0.469131,0.2990467 -0.03339,0.036298 0.09426,0.035665 0.131258,0.068277 0.06272,0.055282 0.115125,0.1221283 0.162726,0.1908579 0.367898,0.5311968 0.643228,1.1280501 0.934432,1.7021956 0.286122,0.5913493 0.577963,1.1798395 0.872921,1.7668126 0.161083,0.3205581 0.227484,0.4732459 0.415855,0.7742317 0.0827,0.1321446 0.174079,0.2586585 0.261119,0.3879879 0.109355,0.1453121 0.215898,0.2927834 0.328065,0.435936 0.285718,0.3646447 0.501022,0.610245 0.802882,0.9654846 0.441279,0.5193139 0.879948,1.0393225 1.307798,1.5697727 0.602141,0.7375818 1.146971,1.5193698 1.633836,2.3371688 0.437859,0.709781 0.938403,1.379069 1.417431,2.061375 0.200012,0.2661 0.373116,0.550916 0.564896,0.822684 0.04109,0.05823 0.08022,0.118268 0.127392,0.171688 0.170251,0.192828 0.395885,0.382977 0.583083,0.551312 0.143833,0.121087 0.283763,0.246965 0.431496,0.36326 0.175382,0.138059 0.356949,0.268103 0.537408,0.399456 0.636987,0.46365 1.291744,0.902068 1.961714,1.316732 0.241387,0.149402 0.486907,0.292024 0.730361,0.438036 0.598556,0.339598 1.18545,0.701254 1.793354,1.024379 0.176598,0.09387 0.420449,0.224553 0.625718,0.275055 0.0578,0.01422 0.118592,0.01032 0.177887,0.01548 0.231154,-0.142604 0.49429,-0.243155 0.69346,-0.427811 0.05753,-0.05334 0.01939,-0.155989 0.02085,-0.234426 0.0036,-0.197821 -0.02357,-0.456786 -0.04217,-0.650238 -0.01177,-0.122534 -0.025,-0.244925 -0.0375,-0.367388 -0.01265,-0.131647 -0.02529,-0.263294 -0.03793,-0.394941 -0.07169,-0.827369 -0.0084,-1.655874 0.04237,-2.482107 0.01955,-0.488936 0.08281,-0.986715 2.64e-4,-1.473789 -0.03619,-0.213785 -0.150482,-0.613051 -0.208029,-0.824007 -0.08287,-0.290262 -0.18761,-0.573529 -0.279357,-0.860922 -0.02072,-0.0649 -0.0724,-0.218034 -0.07202,-0.297946 1.56e-4,-0.03358 0.01439,-0.06559 0.02159,-0.09839 0.01484,-0.02552 0.02566,-0.05385 0.04453,-0.07656 0.0635,-0.07643 0.218662,-0.150725 0.172876,-0.123179 -0.152096,0.09151 -0.314333,0.167714 -0.457031,0.273281 -0.05191,0.0384 0.119348,-0.04984 0.180996,-0.06907 0.07579,-0.02364 0.153789,-0.03956 0.230685,-0.05934 0.672111,-0.12394 1.360501,-0.113738 2.041059,-0.09545 0.505048,0.02135 0.604084,0.09532 1.102993,-0.351851 0.03733,-0.03346 -0.0614,-0.08034 -0.1,-0.112317 -0.03949,-0.03272 -0.08777,-0.05307 -0.131654,-0.07961 0,0 -0.573754,0.370063 -0.573754,0.370063 v 0 c 0.277421,0.17656 0.286676,0.152618 0.712309,-0.202934 0.123168,-0.102889 -0.696961,0.141219 -0.481442,-0.0055 -0.679532,-0.01262 -1.364916,-0.02336 -2.03917,0.07316 -0.524917,0.112413 -0.522851,0.155626 -1.125241,0.510485 -0.100346,0.05911 -0.16656,0.141198 -0.195606,0.253488 -0.0026,0.03911 -0.01148,0.07833 -0.0076,0.117335 0.008,0.08081 0.06853,0.230262 0.09364,0.297017 0.10504,0.279224 0.215389,0.556617 0.304162,0.841698 0.08406,0.302645 0.149995,0.504379 0.196205,0.817391 0.07153,0.484546 0.01609,0.977938 -0.0021,1.463761 -0.05222,0.829204 -0.09311,1.6596 -0.03672,2.49014 0.03124,0.369156 0.08041,0.741714 0.08896,1.112373 0.0024,0.09984 0.0046,0.200322 -0.0069,0.299526 -0.0079,0.06848 -0.119878,0.204984 -0.05109,0.200401 0.178941,-0.01192 0.32443,-0.152948 0.486646,-0.229422 -0.06047,0.0033 -0.121383,0.01807 -0.181404,0.01001 C 37.322651,18.954756 37.06817,18.835498 36.880077,18.746684 36.250975,18.449633 35.64941,18.096619 35.045414,17.752933 34.802876,17.607027 34.557792,17.465273 34.317802,17.315216 33.90094,17.05457 33.36862,16.697472 32.965366,16.411512 32.666093,16.199286 32.153267,15.819019 31.864681,15.579682 31.721896,15.461264 31.587461,15.333127 31.448851,15.209849 31.339856,15.101827 31.227776,14.996833 31.121868,14.885783 30.76779,14.514516 30.492702,14.078869 30.179266,13.675018 29.692748,12.999701 29.225089,12.311431 28.783174,11.606067 28.270808,10.799658 27.713903,10.02058 27.098622,9.2890905 26.662623,8.7655812 26.226094,8.242515 25.790545,7.7186305 25.488319,7.3551081 25.287219,7.1223819 25.005542,6.7471228 24.897239,6.6028376 24.795741,6.4535671 24.69084,6.3067895 24.606547,6.1772106 24.519695,6.04926 24.437959,5.9180531 24.261898,5.6354543 24.165284,5.4520475 24.00326,5.1578658 23.686773,4.5832275 23.379034,4.0038734 23.100987,3.4093528 22.890884,2.9787035 22.683734,2.5466018 22.47081,2.1173406 22.393578,1.9616391 22.322315,1.8025755 22.234957,1.6523211 c -1.02e-4,-1.752e-4 -0.236499,-0.3615152 -0.31888,-0.3381188 -0.256617,0.07288 -0.47394,0.2450217 -0.710911,0.3675326 -0.282868,0.1830987 -0.109483,0.06727 0.326237,-0.1731605 0.04327,-0.023876 -0.08409,0.052071 -0.127693,0.075333 -0.01613,0.00861 -0.162317,0.076439 -0.190413,0.084203 -0.0209,0.00578 -0.04318,0.00413 -0.06477,0.00619 -0.01767,-0.01791 -0.03917,-0.03272 -0.053,-0.053731 -0.02187,-0.033212 -0.105063,-0.23009 -0.112164,-0.2469045 C 20.887,1.1454985 20.804146,0.91241768 20.721534,0.67897096 20.46538,-0.09882188 20.20822,-0.87897223 20.03673,-1.6806814 c 0,0 -0.601624,0.3253459 -0.601624,0.3253459 z" />
    <path
       style="fill:none;stroke:#000000;stroke-width:0.264583px;stroke-linecap:butt;stroke-linejoin:miter;stroke-opacity:1;"
       d="m 24.401094,1.0448975 v 0 L 36.568311,12.877767 v 0"
       id="path1005" />
    <rect
       style="opacity:1;fill:#000000;fill-opacity:0;stroke-width:2;stroke-linejoin:round;stroke-miterlimit:4;stroke-dasharray:none;"
       id="rect1337"
       width="6.7819638"
       height="6.6884198"
       x="16.627506"
       y="0.91205722"
       ry="2.873137" />
    <rect
       style="opacity:1;fill:#000000;fill-opacity:0;stroke-width:2;stroke-linejoin:round;stroke-miterlimit:4;stroke-dasharray:none;"
       id="rect1339"
       width="0.91205722"
       height="1.6370258"
       x="16.72105"
       y="2.6192415"
       ry="0.45602861" />
    <rect
       style="opacity:1;fill:#000000;fill-opacity:0;stroke-width:2;stroke-linejoin:round;stroke-miterlimit:4;stroke-dasharray:none;"
       id="rect1341"
       width="0.63142431"
       height="11.459181"
       x="23.40947"
       y="0.91205722"
       ry="0.31571215" />
    <rect
       style="opacity:0.999;fill:#000000;fill-opacity:1;stroke-width:1.68026;stroke-linejoin:round;stroke-miterlimit:4;stroke-dasharray:none;"
       id="rect1343"
       width="1.8487096"
       height="12.207536"
       x="23.47674"
       y="1.6265813"
       ry="0.31571144" />
    <rect
       style="opacity:0.999;fill:#000000;fill-opacity:1;stroke-width:1.68026;stroke-linejoin:round;stroke-miterlimit:4;stroke-dasharray:none;"
       id="rect1343-6"
       width="1.8487096"
       height="12.207536"
       x="11.954391"
       y="-35.702522"
       ry="0.31571144"
       transform="rotate(90.075667)" />
    <rect
       style="opacity:0.999;fill:#000000;fill-opacity:1;stroke-width:2;stroke-linejoin:round;stroke-miterlimit:4;stroke-dasharray:none;"
       id="rect1399"
       width="1.5875"
       height="19.049999"
       x="23.545666"
       y="8.6927242"
       ry="0.79374999"
       rx="0.79374999"
       transform="rotate(15)" />
    <path
       id="rect1401-4"
       style="opacity:0.999;fill:#000000;fill-opacity:1;stroke-width:2;stroke-linejoin:round;stroke-miterlimit:4;stroke-dasharray:none;"
       d="m 7.9955237,23.531699 5.8889263,5.888926 c 0.310941,0.310941 0.354759,0.767773 0.09825,1.024287 -0.256514,0.256513 -0.713346,0.212695 -1.024287,-0.09825 L 7.0694825,24.45774 c -0.3109417,-0.310941 -0.354759,-0.767773 -0.098245,-1.024286 0.2565136,-0.256514 0.7133448,-0.212697 1.0242866,0.09824 z m -0.9260419,-0.19649 5.8889262,-5.888926 c 0.310941,-0.310941 0.767773,-0.354759 1.024286,-0.09825 0.256514,0.256513 0.212696,0.713345 -0.09825,1.024286 L 7.995523,24.26125 C 7.6845812,24.572192 7.2277499,24.616009 6.9712364,24.359496 6.7147228,24.102982 6.75854,23.646151 7.0694818,23.335209 Z" />
    <path
       id="rect1401-4-8"
       style="opacity:0.999;fill:#000000;fill-opacity:1;stroke-width:2;stroke-linejoin:round;stroke-miterlimit:4;stroke-dasharray:none;"
       d="m 28.896174,24.261252 -5.888926,-5.888926 c -0.310941,-0.310941 -0.354759,-0.767773 -0.09825,-1.024287 0.256513,-0.256513 0.713345,-0.212696 1.024286,0.09825 l 5.888926,5.888926 c 0.310942,0.310942 0.354759,0.767774 0.09825,1.024287 -0.256514,0.256514 -0.713345,0.212697 -1.024287,-0.09825 z m 0.926039,0.196487 -5.888926,5.888926 c -0.310941,0.310941 -0.767773,0.354759 -1.024287,0.09824 -0.256513,-0.256513 -0.212695,-0.713345 0.09825,-1.024286 l 5.888926,-5.888926 c 0.310941,-0.310942 0.767773,-0.354759 1.024286,-0.09825 0.256514,0.256514 0.212696,0.713346 -0.09824,1.024287 z" />
    <rect
       style="opacity:0.999;fill:#000000;fill-opacity:1;stroke-width:2;stroke-linejoin:round;stroke-miterlimit:4;stroke-dasharray:none;"
       id="rect1453"
       width="32.927605"
       height="14.499372"
       x="7.2029142"
       y="36.108112"
       ry="1.9176588" />
    <text
       xml:space="preserve"
       style="font-style:normal;font-weight:normal;font-size:10.5833px;line-height:1.25;font-family:sans-serif;fill:#ffffff;fill-opacity:1;stroke:none;stroke-width:0.264583;"
       x="10.991459"
       y="42.74976"
       id="text1462"><tspan
         sodipodi:role="line"
         id="tspan1460"
         x="10.991459"
         y="42.74976"
         style="stroke-width:0.264583;fill:#ffffff;fill-opacity:1;-inkscape-font-specification:Arial;font-family:Arial;font-weight:normal;font-style:normal;font-stretch:normal;font-variant:normal;" /></text>
    <text
       xml:space="preserve"
       style="font-style:normal;font-variant:normal;font-weight:normal;font-stretch:normal;font-size:10.5833px;line-height:1.25;font-family:'Malgun Gothic';-inkscape-font-specification:'Malgun Gothic';fill:#ffffff;fill-opacity:1;stroke:none;stroke-width:0.264583"
       x="11.505953"
       y="47.660839"
       id="text1467"><tspan
         sodipodi:role="line"
         id="tspan1465"
         x="11.505953"
         y="47.660839"
         style="font-style:normal;font-variant:normal;font-weight:normal;font-stretch:normal;font-family:'Malgun Gothic';-inkscape-font-specification:'Malgun Gothic';fill:#ffffff;fill-opacity:1;stroke-width:0.264583">.Java</tspan></text>
  </g>
</svg>
