<?xml version="1.0" encoding="UTF-8" standalone="no"?>
<svg
   xmlns:dc="http://purl.org/dc/elements/1.1/"
   xmlns:cc="http://creativecommons.org/ns#"
   xmlns:rdf="http://www.w3.org/1999/02/22-rdf-syntax-ns#"
   xmlns:svg="http://www.w3.org/2000/svg"
   xmlns="http://www.w3.org/2000/svg"
   xmlns:sodipodi="http://sodipodi.sourceforge.net/DTD/sodipodi-0.dtd"
   xmlns:inkscape="http://www.inkscape.org/namespaces/inkscape"
   width="210mm"
   height="297mm"
   viewBox="0 0 210 297"
   version="1.1"
   id="svg988"
   sodipodi:docname="java.svg"
   inkscape:version="1.0.2-2 (e86c870879, 2021-01-15)">
  <defs
     id="defs982">
    <rect
       x="49.923879"
       y="82.39881"
       width="68.791667"
       height="17.764881"
       id="rect1574" />
    <linearGradient
       id="a"
       gradientUnits="userSpaceOnUse"
       x1="-2031.312"
       y1="275.86801"
       x2="-1922.296"
       y2="182.075"
       gradientTransform="matrix(0.78363422,0,0,-0.79129642,1619.5479,281.65969)">
      <stop
         offset="0"
         stop-color="#5a9fd4"
         id="stop1662" />
      <stop
         offset="1"
         stop-color="#306998"
         id="stop1664" />
    </linearGradient>
    <linearGradient
       id="b"
       gradientUnits="userSpaceOnUse"
       x1="-1880.151"
       y1="125.305"
       x2="-1919.08"
       y2="180.384"
       gradientTransform="matrix(0.78363422,0,0,-0.79129642,1619.5479,281.65969)">
      <stop
         offset="0"
         stop-color="#ffd43b"
         id="stop1669" />
      <stop
         offset="1"
         stop-color="#ffe873"
         id="stop1671" />
    </linearGradient>
  </defs>
  <sodipodi:namedview
     id="base"
     pagecolor="#ffffff"
     bordercolor="#666666"
     borderopacity="1.0"
     inkscape:pageopacity="0.0"
     inkscape:pageshadow="2"
     inkscape:zoom="0.49497475"
     inkscape:cx="272.478"
     inkscape:cy="784.21646"
     inkscape:document-units="mm"
     inkscape:current-layer="layer1"
     inkscape:document-rotation="0"
     showgrid="false"
     inkscape:window-width="1920"
     inkscape:window-height="1002"
     inkscape:window-x="-8"
     inkscape:window-y="-8"
     inkscape:window-maximized="1" />
  <metadata
     id="metadata985">
    <rdf:RDF>
      <cc:Work
         rdf:about="">
        <dc:format>image/svg+xml</dc:format>
        <dc:type
           rdf:resource="http://purl.org/dc/dcmitype/StillImage" />
        <dc:title></dc:title>
      </cc:Work>
    </rdf:RDF>
  </metadata>
  <g
     inkscape:label="Layer 1"
     inkscape:groupmode="layer"
     id="layer1">
    <circle
       style="opacity:0.999;fill:#000000;stroke-width:10.5724;stroke-linejoin:round"
       id="path990"
       cx="106.96725"
       cy="137.11929"
       r="99.407738" />
    <g
       id="g1904"
       transform="matrix(0.93691396,0,0,0.93691396,7.2133121,10.564818)"
       style="fill:#ffffff"
       inkscape:transform-center-x="2.6726953"
       inkscape:transform-center-y="-13.898015">
      <path
         d="m 82.017338,173.93634 c 0,0 -6.788163,3.9475 4.831132,5.28322 14.07679,1.60575 21.27077,1.37585 36.78356,-1.56048 0,0 4.07867,2.55727 9.77387,4.7725 -34.774566,14.90383 -78.70274,-0.86357 -51.388562,-8.49524 m -4.249416,-19.44899 c 0,0 -7.613671,5.63605 4.014371,6.83857 15.037045,1.55122 26.911957,1.67826 47.460597,-2.2785 0,0 2.8422,2.8813 7.31126,4.45722 -42.045191,12.29462 -88.875753,0.96951 -58.786228,-9.01729"
         fill="#5382a1"
         id="path1805"
         style="fill:#ffffff;stroke-width:0.514333" />
      <path
         d="m 113.59123,121.49596 c 8.56878,9.86491 -2.25124,18.7423 -2.25124,18.7423 0,0 21.7568,-11.2315 11.76485,-25.29644 -9.33206,-13.1155 -16.48901,-19.633135 22.25417,-42.102305 0,0 -60.813724,15.188267 -31.76778,48.655915"
         fill="#e76f00"
         id="path1807"
         style="fill:#ffffff;stroke-width:0.514333" />
      <path
         d="m 159.58392,188.32173 c 0,0 5.0235,4.13883 -5.53268,7.34108 -20.07236,6.08096 -83.544167,7.91713 -101.176537,0.24224 -6.338126,-2.75682 5.548114,-6.58345 9.286802,-7.38685 3.89916,-0.84556 6.127765,-0.68766 6.127765,-0.68766 -7.048936,-4.96589 -45.561177,9.75021 -19.562148,13.96415 70.902368,11.49843 129.247818,-5.17728 110.856798,-13.47296 M 85.281302,134.33628 c 0,0 -32.285215,7.66872 -11.432598,10.4528 8.804351,1.17885 26.355976,0.91242 42.705086,-0.45775 13.36133,-1.1264 26.77772,-3.52319 26.77772,-3.52319 0,0 -4.71129,2.01773 -8.11978,4.34508 -32.78564,8.6228 -96.121668,4.61151 -77.888043,-4.20878 15.420227,-7.45372 27.958123,-6.60816 27.958123,-6.60816 m 57.91649,32.37316 c 33.32879,-17.31863 17.91886,-33.96141 7.16312,-31.71893 -2.63647,0.54829 -3.81173,1.02353 -3.81173,1.02353 0,0 0.97878,-1.53272 2.84786,-2.19621 21.27796,-7.48098 37.64251,22.06336 -6.86891,33.76443 0,5.4e-4 0.51587,-0.46032 0.66966,-0.87282"
         fill="#5382a1"
         id="path1809"
         style="fill:#ffffff;stroke-width:0.514333" />
      <path
         d="m 123.10484,36.556908 c 0,0 18.45788,18.464568 -17.50636,46.856276 -28.83916,22.775706 -6.576257,35.761586 -0.0122,50.598556 C 88.752098,118.82348 76.397823,105.45288 84.686293,93.009104 96.85079,74.741529 130.55145,65.885218 123.10441,36.556403"
         fill="#e76f00"
         id="path1811"
         style="fill:#ffffff;stroke-width:0.514333" />
      <path
         d="m 88.556563,213.63874 c 31.991017,2.04809 81.116527,-1.13616 82.279937,-16.27349 0,0 -2.23631,5.73893 -26.43877,10.29592 -27.30492,5.13819 -60.9814,4.53848 -80.955536,1.24521 5.37e-4,0 4.088949,3.3843 25.114886,4.73236"
         fill="#5382a1"
         id="path1813"
         style="fill:#ffffff;stroke-width:0.514333" />
    </g>
  </g>
</svg>
