<?xml version="1.0" encoding="UTF-8" standalone="no"?>
<svg
   xmlns:dc="http://purl.org/dc/elements/1.1/"
   xmlns:cc="http://creativecommons.org/ns#"
   xmlns:rdf="http://www.w3.org/1999/02/22-rdf-syntax-ns#"
   xmlns:svg="http://www.w3.org/2000/svg"
   xmlns="http://www.w3.org/2000/svg"
   xmlns:sodipodi="http://sodipodi.sourceforge.net/DTD/sodipodi-0.dtd"
   xmlns:inkscape="http://www.inkscape.org/namespaces/inkscape"
   width="210mm"
   height="297mm"
   viewBox="0 0 210 297"
   version="1.1"
   id="svg988"
   sodipodi:docname="python.svg"
   inkscape:version="1.0.2-2 (e86c870879, 2021-01-15)">
  <defs
     id="defs982">
    <rect
       x="49.923879"
       y="82.39881"
       width="68.791667"
       height="17.764881"
       id="rect1574" />
    <linearGradient
       id="a"
       gradientUnits="userSpaceOnUse"
       x1="-2031.312"
       y1="275.86801"
       x2="-1922.296"
       y2="182.075"
       gradientTransform="matrix(0.78363422,0,0,-0.79129642,1619.5479,281.65969)">
      <stop
         offset="0"
         stop-color="#5a9fd4"
         id="stop1662" />
      <stop
         offset="1"
         stop-color="#306998"
         id="stop1664" />
    </linearGradient>
    <linearGradient
       id="b"
       gradientUnits="userSpaceOnUse"
       x1="-1880.151"
       y1="125.305"
       x2="-1919.08"
       y2="180.384"
       gradientTransform="matrix(0.78363422,0,0,-0.79129642,1619.5479,281.65969)">
      <stop
         offset="0"
         stop-color="#ffd43b"
         id="stop1669" />
      <stop
         offset="1"
         stop-color="#ffe873"
         id="stop1671" />
    </linearGradient>
  </defs>
  <sodipodi:namedview
     id="base"
     pagecolor="#ffffff"
     bordercolor="#666666"
     borderopacity="1.0"
     inkscape:pageopacity="0.0"
     inkscape:pageshadow="2"
     inkscape:zoom="0.49497475"
     inkscape:cx="272.478"
     inkscape:cy="784.21646"
     inkscape:document-units="mm"
     inkscape:current-layer="layer1"
     inkscape:document-rotation="0"
     showgrid="false"
     inkscape:window-width="1920"
     inkscape:window-height="1002"
     inkscape:window-x="-8"
     inkscape:window-y="-8"
     inkscape:window-maximized="1" />
  <metadata
     id="metadata985">
    <rdf:RDF>
      <cc:Work
         rdf:about="">
        <dc:format>image/svg+xml</dc:format>
        <dc:type
           rdf:resource="http://purl.org/dc/dcmitype/StillImage" />
        <dc:title></dc:title>
      </cc:Work>
    </rdf:RDF>
  </metadata>
  <g
     inkscape:label="Layer 1"
     inkscape:groupmode="layer"
     id="layer1">
    <circle
       style="opacity:0.999;fill:#000000;stroke-width:10.5724;stroke-linejoin:round"
       id="path990"
       cx="106.96725"
       cy="137.20535"
       r="99.407738" />
    <g
       id="g1785"
       transform="translate(-1.8898994)"
       style="fill:#ffffff">
      <path
         d="m 107.93489,58.920898 c -6.3861,0.02925 -12.483825,0.573968 -17.848755,1.524081 C 74.279705,63.2382 71.409865,69.08237 71.409865,79.86239 V 94.09876 H 108.7624 v 4.744993 H 57.390825 c -10.85525,0 -20.36196,6.525407 -23.33489,18.938177 -3.42988,14.22801 -3.58173,23.10641 0,37.96272 2.6553,11.05865 8.99682,18.93818 19.85207,18.93818 h 12.84324 v -17.06582 c 0,-12.32917 10.66718,-23.20393 23.33489,-23.20393 h 37.309345 c 10.38577,0 18.67627,-8.55101 18.67627,-18.98136 V 79.860997 c 0,-10.122464 -8.53987,-17.727547 -18.67627,-19.417411 -6.41814,-1.067136 -13.0745,-1.553337 -19.46059,-1.522688 z M 87.734535,70.36962 c 3.85896,0 7.00882,3.2028 7.00882,7.139778 0,3.923047 -3.15125,7.096591 -7.00882,7.096591 -3.87151,0 -7.00883,-3.172151 -7.00883,-7.096591 0,-3.936978 3.13732,-7.139778 7.00883,-7.139778 z"
         fill="url(#a)"
         id="path1667"
         style="fill:#ffffff;stroke-width:1.39313" />
      <path
         d="m 150.73037,98.842359 v 16.586581 c 0,12.85995 -10.90262,23.68316 -23.33489,23.68316 H 90.086135 c -10.21999,0 -18.67627,8.74606 -18.67627,18.98136 v 35.56794 c 0,10.12386 8.80178,16.07809 18.67627,18.98136 11.823475,3.47725 23.162135,4.10555 37.309345,0 9.40361,-2.72217 18.67627,-8.20273 18.67627,-18.98136 V 179.42642 H 108.7624 v -4.74499 h 55.98562 c 10.85664,0 14.90089,-7.57304 18.67626,-18.93817 3.90076,-11.69949 3.73498,-22.95317 0,-37.96272 -2.68316,-10.80649 -7.80708,-18.938181 -18.67626,-18.938181 z m -20.98468,90.074051 c 3.8715,0 7.00882,3.17215 7.00882,7.09659 0,3.93698 -3.13732,7.13978 -7.00882,7.13978 -3.85896,0 -7.00883,-3.2028 -7.00883,-7.13978 0,-3.92305 3.15126,-7.09659 7.00883,-7.09659 z"
         fill="url(#b)"
         id="path1674"
         style="fill:#ffffff;stroke-width:1.39313" />
    </g>
  </g>
</svg>
