<?xml version="1.0" encoding="UTF-8"?>
<svg width="210mm" height="297mm" version="1.1" viewBox="0 0 210 297" xmlns="http://www.w3.org/2000/svg" xmlns:cc="http://creativecommons.org/ns#" xmlns:dc="http://purl.org/dc/elements/1.1/" xmlns:osb="http://www.openswatchbook.org/uri/2009/osb" xmlns:rdf="http://www.w3.org/1999/02/22-rdf-syntax-ns#" xmlns:xlink="http://www.w3.org/1999/xlink">
 <defs>
  <linearGradient id="linearGradient940" x1="45.436" x2="80.983" y1="44.768" y2="44.768" gradientTransform="matrix(5.0451 0 0 5.0451 -220.71 -102.2)" gradientUnits="userSpaceOnUse">
   <stop offset="0"/>
  </linearGradient>
  <linearGradient id="linearGradient886" x1="43.491" x2="207" y1="251.07" y2="251.07" gradientTransform="matrix(.98832 0 0 1.213 -9.9908 -88.319)" gradientUnits="userSpaceOnUse">
   <stop offset="0"/>
  </linearGradient>
 </defs>
 <metadata>
  <rdf:RDF>
   <cc:Work rdf:about="">
    <dc:format>image/svg+xml</dc:format>
    <dc:type rdf:resource="http://purl.org/dc/dcmitype/StillImage"/>
    <dc:title/>
   </cc:Work>
  </rdf:RDF>
 </metadata>
 <g transform="matrix(.29194 0 0 .29194 -22.332 -10.065)"></g>
 <g fill-opacity="0">
  <g stroke-width="1.3349">
   <rect x="50.767" y="65.631" width="8.9687" height="7.8841"/>
   <rect x="-22.612" y="114.17" width="33.133" height="25.744"/>
   <rect x="9.8056" y="128.48" width="61.499" height="10.011"/>
   <rect x="67.87" y="71.179" width=".83429" height="2.336"/>
  </g>
  <g stroke-linejoin="round">
   <path d="m125.36 7.2738c-10.328 0.038212-20.659 0.00345-30.988 0.014722-24.047 0.00427-48.095-0.00925-72.142 0.022982-6.1997 0.22187-11.99 4.5753-13.94 10.463-1.2547 3.5649-0.73404 7.3929-0.83919 11.091 0.00376 65.407-0.00925 130.81 0.015982 196.22 0.15637 6.186 4.4316 12.007 10.278 14.029 3.4818 1.2922 7.2458 0.82341 10.875 0.90608 48.496-3e-3 96.993 0.0145 145.49-0.0187 6.1165-0.20289 11.852-4.4172 13.893-10.186 1.3505-3.5702 0.84559-7.4429 0.93834-11.169v-150.58c-68.727-0.41176-96.509-0.71728-2.4372-2.8241-19.758-19.215-39.516-38.43-59.275-57.646-0.54903-0.33306-0.30901 58.8-0.93184 58.799z" stroke="url(#linearGradient940)" stroke-width="10.09"/>
   <rect x="71.614" y="20.651" width=".81098" height="8.4784" stroke-width="1.1751"/>
   <rect x="55.689" y="21.094" width="14.229" height="10.174" ry="3.1702" stroke-width="1.1751"/>
  </g>
 </g>
 <path d="m55.689 21.094c0 0.02458 2e-6 0.04914 0 0z" fill="none" stroke="#000" stroke-width=".29194px"/>
 <g fill-opacity="0" stroke-linejoin="round" stroke-width="10.09">
  <rect x="8.5237" y="8.3652" width="8.6671" height="9.5617" ry="4.3336"/>
  <path d="m101.42-3.7434c1.2775 3.9217 2.4595 7.8762 3.6298 11.832 0.3751 1.2067 0.77554 2.4047 1.2163 3.5889 0.16185 0.43492 0.27622 0.89344 0.5039 1.2978 0.0784 0.13928 0.19904 0.25018 0.29858 0.37527 0.15015 0.05671 0.29085 0.15352 0.45048 0.17016 0.60804 0.06337 1.3113-0.36936 1.8007-0.6536 3.3011-1.9171 2.5328-1.4311 4.2392-2.5385-0.78895 0.50291-1.7334 0.82013-2.3668 1.5087-0.16846 0.18313 0.47556 0.17994 0.66221 0.34447 0.31643 0.2789 0.58082 0.61615 0.82097 0.9629 1.8561 2.68 3.2452 5.6912 4.7144 8.5878 1.4435 2.9834 2.9159 5.9525 4.404 8.9138 0.81269 1.6173 1.1477 2.3876 2.098 3.9061 0.41723 0.66669 0.87825 1.305 1.3174 1.9575 0.5517 0.73312 1.0892 1.4771 1.6551 2.1994 1.4415 1.8397 2.5277 3.0788 4.0506 4.871 2.2263 2.62 4.4394 5.2435 6.598 7.9197 3.0379 3.7212 5.7866 7.6654 8.2429 11.791 2.2091 3.5809 4.7344 6.9576 7.1511 10.4 1.0091 1.3425 1.8824 2.7794 2.85 4.1506 0.2073 0.29378 0.40472 0.59668 0.64271 0.86619 0.85893 0.97285 1.9973 1.9322 2.9417 2.7814 0.72565 0.6109 1.4316 1.246 2.177 1.8327 0.88483 0.69653 1.8009 1.3526 2.7113 2.0153 3.2137 2.3392 6.517 4.5511 9.8971 6.6431 1.2178 0.75375 2.4565 1.4733 3.6848 2.2099 3.0198 1.7133 5.9808 3.5379 9.0477 5.1681 0.89096 0.47359 2.1212 1.1329 3.1568 1.3877 0.2916 0.0717 0.59831 0.052 0.89745 0.0781 1.1662-0.71946 2.4938-1.2268 3.4986-2.1584 0.29025-0.26911 0.0979-0.78698 0.10515-1.1827 0.0182-0.99804-0.11892-2.3045-0.21275-3.2805-0.0593-0.6182-0.12613-1.2357-0.1892-1.8535-0.0638-0.66418-0.12759-1.3284-0.19135-1.9925-0.3617-4.1742-0.0424-8.3541 0.21375-12.523 0.0987-2.4668 0.4178-4.9781 1e-3 -7.4355-0.18258-1.0786-0.75919-3.0929-1.0495-4.1572-0.41809-1.4644-0.94651-2.8935-1.4094-4.3435-0.10448-0.32743-0.36526-1.1-0.36334-1.5032 7.8e-4 -0.16942 0.0726-0.33091 0.1089-0.49639 0.0749-0.12875 0.12946-0.27168 0.22466-0.38626 0.32037-0.3856 1.1032-0.76043 0.8722-0.62145-0.76736 0.46168-1.5859 0.84614-2.3058 1.3787-0.2619 0.19373 0.60213-0.25145 0.91315-0.34847 0.38237-0.11927 0.77588-0.19958 1.1638-0.29938 3.3909-0.62529 6.8639-0.57382 10.297-0.48156 2.548 0.10771 3.0477 0.4809 5.5648-1.7751 0.18834-0.16881-0.30977-0.40533-0.50452-0.56665-0.19923-0.16508-0.4428-0.26775-0.6642-0.40164l-2.8947 1.867c1.3996 0.89077 1.4463 0.76998 3.5937-1.0238 0.62139-0.51909-3.5163 0.71247-2.429-0.02775-3.4283-0.06366-6.8862-0.11786-10.288 0.3691-2.6483 0.56714-2.6378 0.78515-5.677 2.5755-0.50626 0.29822-0.84031 0.71236-0.98687 1.2789-0.0131 0.19732-0.0579 0.39518-0.0384 0.59197 0.0403 0.4077 0.34574 1.1617 0.47244 1.4985 0.52993 1.4087 1.0867 2.8082 1.5345 4.2465 0.42409 1.5269 0.75675 2.5447 0.98988 4.1239 0.36088 2.4446 0.0812 4.9338-0.0111 7.3849-0.26344 4.1834-0.46974 8.3729-0.18525 12.563 0.15761 1.8624 0.40568 3.7421 0.44881 5.6121 0.0121 0.5037 0.0232 1.0107-0.0347 1.5111-0.0398 0.34549-0.6048 1.0342-0.25775 1.011 0.90277-0.06015 1.6368-0.77164 2.4552-1.1575-0.30508 0.01666-0.61239 0.09113-0.91521 0.05049-1.0994-0.14746-2.3833-0.74914-3.3323-1.1972-3.1739-1.4987-6.2089-3.2797-9.2561-5.0136-1.2236-0.73611-2.4601-1.4513-3.6709-2.2083-2.1031-1.315-4.7888-3.1166-6.8232-4.5593-1.5099-1.0707-4.0971-2.9892-5.5531-4.1967-0.72037-0.59744-1.3986-1.2439-2.0979-1.8659-0.54989-0.54498-1.1154-1.0747-1.6497-1.635-1.7864-1.8731-3.1742-4.071-4.7556-6.1085-2.4546-3.4071-4.814-6.8795-7.0435-10.438-2.585-4.0684-5.3946-7.999-8.4988-11.689-2.1997-2.6412-4.402-5.2801-6.5994-7.9232-1.5248-1.834-2.5394-3.0082-3.9604-4.9014-0.54641-0.72794-1.0585-1.481-1.5877-2.2215-0.42528-0.65374-0.86345-1.2993-1.2758-1.9612-0.88826-1.4257-1.3757-2.3511-2.1931-3.8352-1.5967-2.8991-3.1493-5.8221-4.5521-8.8215-1.06-2.1727-2.1051-4.3527-3.1793-6.5184-0.38963-0.78554-0.74918-1.588-1.1899-2.3461-5e-4 -8.84e-4 -1.1932-1.8239-1.6088-1.7059-1.2947 0.36769-2.3911 1.2362-3.5866 1.8543-1.4271 0.92376-0.55237 0.33939 1.6459-0.87362 0.21831-0.12046-0.42423 0.26271-0.64422 0.38007-0.0815 0.04344-0.81892 0.38564-0.96067 0.42482-0.10548 0.02916-0.21784 0.02083-0.32676 0.03122-0.0891-0.09035-0.19762-0.16508-0.26739-0.27108-0.11034-0.16756-0.53006-1.1608-0.56589-1.2457-0.48617-1.1511-0.90417-2.3271-1.321-3.5048-1.2923-3.9241-2.5897-7.86-3.4549-11.905l-3.0353 1.6414z"/>
  <rect x="87.258" y="7.6959" width="34.216" height="33.744" ry="14.495"/>
  <rect x="87.73" y="16.309" width="4.6015" height="8.259" ry="2.3007"/>
  <rect x="121.47" y="7.6959" width="3.1856" height="57.813" ry="1.5928"/>
 </g>
 <g stroke-linejoin="round" stroke-width="7.333">
  <rect transform="rotate(15)" x="121.71" y="59.716" width="5.8206" height="69.847" rx="2.9103" ry="2.9103" opacity=".999"/>
  <path d="m56.285 122.33 21.592 21.592c1.1401 1.1401 1.3007 2.815 0.36023 3.7555-0.94051 0.94051-2.6155 0.77985-3.7555-0.36023l-21.592-21.592c-1.1401-1.1401-1.3007-2.815-0.36022-3.7555 0.9405-0.9405 2.6155-0.77985 3.7555 0.3602zm-3.3953-0.72043 21.592-21.592c1.1401-1.1401 2.815-1.3007 3.7555-0.36023 0.9405 0.9405 0.77985 2.6155-0.36023 3.7555l-21.592 21.592c-1.1401 1.1401-2.815 1.3007-3.7555 0.36023-0.9405-0.94051-0.77985-2.6155 0.36022-3.7555z" opacity=".999"/>
  <path d="m132.92 125.01-21.592-21.592c-1.1401-1.1401-1.3007-2.815-0.36023-3.7555 0.9405-0.9405 2.6155-0.77984 3.7555 0.36023l21.592 21.592c1.1401 1.1401 1.3007 2.815 0.36022 3.7555-0.9405 0.94051-2.6155 0.77986-3.7555-0.36023zm3.3953 0.72043-21.592 21.592c-1.1401 1.1401-2.815 1.3007-3.7555 0.3602-0.94051-0.94051-0.77985-2.6155 0.36023-3.7555l21.592-21.592c1.1401-1.1401 2.815-1.3007 3.7555-0.36024 0.94051 0.94051 0.77985 2.6155-0.36019 3.7555z" opacity=".999"/>
 </g>
 <g>
  <rect x="32.992" y="172.56" width="161.6" height="87.335" ry="11.551" fill="#fff" opacity=".999" stroke="url(#linearGradient886)" stroke-linejoin="round" stroke-width="10.874"/>
  <text x="-4.8023114" y="43.638901" fill="#ffffff" font-family="sans-serif" font-size="11.677px" stroke-width=".29194" style="line-height:1.25" xml:space="preserve"><tspan x="-4.8023114" y="43.638901" fill="#ffffff" font-family="Arial" stroke-width=".29194"/></text>
  <text x="38.21978" y="235.69218" fill="#ffffff" font-family="'Malgun Gothic'" font-size="45.861px" stroke-width="1.3349" style="line-height:1.25" xml:space="preserve"><tspan x="38.21978" y="235.69218" dy="0" fill="#000000" font-family="sans-serif" font-size="45.861px" font-weight="bold" stroke-width="1.3349">.JAVA</tspan></text>
 </g>
</svg>
