<?xml version="1.0" encoding="UTF-8"?>
<svg width="210mm" height="297mm" version="1.1" viewBox="0 0 210 297" xmlns="http://www.w3.org/2000/svg" xmlns:cc="http://creativecommons.org/ns#" xmlns:dc="http://purl.org/dc/elements/1.1/" xmlns:rdf="http://www.w3.org/1999/02/22-rdf-syntax-ns#">
 <metadata>
  <rdf:RDF>
   <cc:Work rdf:about="">
    <dc:format>image/svg+xml</dc:format>
    <dc:type rdf:resource="http://purl.org/dc/dcmitype/StillImage"/>
    <dc:title/>
   </cc:Work>
  </rdf:RDF>
 </metadata>
 <circle cx="106.97" cy="137.12" r="99.408" opacity=".999" stroke-linejoin="round" stroke-width="10.572"/>
 <g transform="matrix(.93691 0 0 .93691 7.2133 10.565)" fill="#fff" stroke-width=".51433">
  <path d="m82.017 173.94s-6.7882 3.9475 4.8311 5.2832c14.077 1.6058 21.271 1.3758 36.784-1.5605 0 0 4.0787 2.5573 9.7739 4.7725-34.775 14.904-78.703-0.86357-51.389-8.4952m-4.2494-19.449s-7.6137 5.636 4.0144 6.8386c15.037 1.5512 26.912 1.6783 47.461-2.2785 0 0 2.8422 2.8813 7.3113 4.4572-42.045 12.295-88.876 0.96951-58.786-9.0173"/>
  <path d="m113.59 121.5c8.5688 9.8649-2.2512 18.742-2.2512 18.742s21.757-11.232 11.765-25.296c-9.3321-13.116-16.489-19.633 22.254-42.102 0 0-60.814 15.188-31.768 48.656"/>
  <path d="m159.58 188.32s5.0235 4.1388-5.5327 7.3411c-20.072 6.081-83.544 7.9171-101.18 0.24224-6.3381-2.7568 5.5481-6.5834 9.2868-7.3868 3.8992-0.84556 6.1278-0.68766 6.1278-0.68766-7.0489-4.9659-45.561 9.7502-19.562 13.964 70.902 11.498 129.25-5.1773 110.86-13.473m-74.303-53.985s-32.285 7.6687-11.433 10.453c8.8044 1.1788 26.356 0.91242 42.705-0.45775 13.361-1.1264 26.778-3.5232 26.778-3.5232s-4.7113 2.0177-8.1198 4.3451c-32.786 8.6228-96.122 4.6115-77.888-4.2088 15.42-7.4537 27.958-6.6082 27.958-6.6082m57.916 32.373c33.329-17.319 17.919-33.961 7.1631-31.719-2.6365 0.54829-3.8117 1.0235-3.8117 1.0235s0.97878-1.5327 2.8479-2.1962c21.278-7.481 37.643 22.063-6.8689 33.764 0 5.4e-4 0.51587-0.46032 0.66966-0.87282"/>
  <path d="m123.1 36.557s18.458 18.465-17.506 46.856c-28.839 22.776-6.5763 35.762-0.0122 50.599-16.834-15.188-29.188-28.559-20.9-41.003 12.164-18.268 45.865-27.124 38.418-56.453"/>
  <path d="m88.557 213.64c31.991 2.0481 81.117-1.1362 82.28-16.273 0 0-2.2363 5.7389-26.439 10.296-27.305 5.1382-60.981 4.5385-80.956 1.2452 5.37e-4 0 4.0889 3.3843 25.115 4.7324"/>
 </g>
</svg>
