<?xml version="1.0" encoding="UTF-8"?>
<svg width="210mm" height="297mm" version="1.1" viewBox="0 0 210 297" xmlns="http://www.w3.org/2000/svg" xmlns:cc="http://creativecommons.org/ns#" xmlns:dc="http://purl.org/dc/elements/1.1/" xmlns:rdf="http://www.w3.org/1999/02/22-rdf-syntax-ns#">
 <metadata>
  <rdf:RDF>
   <cc:Work rdf:about="">
    <dc:format>image/svg+xml</dc:format>
    <dc:type rdf:resource="http://purl.org/dc/dcmitype/StillImage"/>
    <dc:title/>
   </cc:Work>
  </rdf:RDF>
 </metadata>
 <circle cx="106.97" cy="137.21" r="99.408" opacity=".999" stroke-linejoin="round" stroke-width="10.572"/>
 <g transform="translate(-1.8899)" fill="#fff" stroke-width="1.3931">
  <path d="m107.93 58.921c-6.3861 0.02925-12.484 0.57397-17.849 1.5241-15.806 2.7932-18.676 8.6374-18.676 19.417v14.236h37.353v4.745h-51.372c-10.855 0-20.362 6.5254-23.335 18.938-3.4299 14.228-3.5817 23.106 0 37.963 2.6553 11.059 8.9968 18.938 19.852 18.938h12.843v-17.066c0-12.329 10.667-23.204 23.335-23.204h37.309c10.386 0 18.676-8.551 18.676-18.981v-35.571c0-10.122-8.5399-17.728-18.676-19.417-6.4181-1.0671-13.074-1.5533-19.461-1.5227zm-20.2 11.449c3.859 0 7.0088 3.2028 7.0088 7.1398 0 3.923-3.1512 7.0966-7.0088 7.0966-3.8715 0-7.0088-3.1722-7.0088-7.0966 0-3.937 3.1373-7.1398 7.0088-7.1398z"/>
  <path d="m150.73 98.842v16.587c0 12.86-10.903 23.683-23.335 23.683h-37.309c-10.22 0-18.676 8.7461-18.676 18.981v35.568c0 10.124 8.8018 16.078 18.676 18.981 11.823 3.4772 23.162 4.1056 37.309 0 9.4036-2.7222 18.676-8.2027 18.676-18.981v-14.235h-37.309v-4.745h55.986c10.857 0 14.901-7.573 18.676-18.938 3.9008-11.699 3.735-22.953 0-37.963-2.6832-10.806-7.8071-18.938-18.676-18.938zm-20.985 90.074c3.8715 0 7.0088 3.1722 7.0088 7.0966 0 3.937-3.1373 7.1398-7.0088 7.1398-3.859 0-7.0088-3.2028-7.0088-7.1398 0-3.923 3.1513-7.0966 7.0088-7.0966z"/>
 </g>
</svg>
